<mxfile host="Electron" agent="Mozilla/5.0 (Macintosh; Intel Mac OS X 10_15_7) AppleWebKit/537.36 (KHTML, like Gecko) draw.io/22.0.2 Chrome/114.0.5735.289 Electron/25.8.4 Safari/537.36" modified="2025-08-14T18:37:58.975Z" version="22.0.2" etag="K61cOh5bDE5VE-eFX1gE" type="device">
  <diagram name="Страница — 1" id="bbVarVoNqKRnEX_RXkl-">
    <mxGraphModel dx="3085" dy="2765" grid="1" gridSize="10" guides="1" tooltips="1" connect="1" arrows="1" fold="1" page="1" pageScale="1" pageWidth="827" pageHeight="1169" math="0" shadow="0">
      <root>
        <mxCell id="0" />
        <mxCell id="1" parent="0" />
        <mxCell id="cDlMDdP6AQrJzQYMhWBW-59" value="" style="rounded=0;whiteSpace=wrap;html=1;" parent="1" vertex="1">
          <mxGeometry x="950" y="210" width="200" height="120" as="geometry" />
        </mxCell>
        <mxCell id="cDlMDdP6AQrJzQYMhWBW-60" value="" style="rounded=0;whiteSpace=wrap;html=1;" parent="1" vertex="1">
          <mxGeometry x="950" y="330" width="200" height="120" as="geometry" />
        </mxCell>
        <mxCell id="cDlMDdP6AQrJzQYMhWBW-61" value="" style="rounded=0;whiteSpace=wrap;html=1;" parent="1" vertex="1">
          <mxGeometry x="950" y="450" width="200" height="120" as="geometry" />
        </mxCell>
        <mxCell id="cDlMDdP6AQrJzQYMhWBW-17" value="" style="rounded=0;whiteSpace=wrap;html=1;" parent="1" vertex="1">
          <mxGeometry x="150" y="210" width="200" height="120" as="geometry" />
        </mxCell>
        <mxCell id="cDlMDdP6AQrJzQYMhWBW-21" value="Q4 2025" style="text;html=1;align=center;verticalAlign=middle;whiteSpace=wrap;rounded=0;fontStyle=1" parent="1" vertex="1">
          <mxGeometry x="220" y="180" width="60" height="30" as="geometry" />
        </mxCell>
        <mxCell id="cDlMDdP6AQrJzQYMhWBW-22" value="Q1 2026" style="text;html=1;align=center;verticalAlign=middle;whiteSpace=wrap;rounded=0;fontStyle=1" parent="1" vertex="1">
          <mxGeometry x="420" y="180" width="60" height="30" as="geometry" />
        </mxCell>
        <mxCell id="cDlMDdP6AQrJzQYMhWBW-23" value="Q2 2026" style="text;html=1;align=center;verticalAlign=middle;whiteSpace=wrap;rounded=0;fontStyle=1" parent="1" vertex="1">
          <mxGeometry x="620" y="180" width="60" height="30" as="geometry" />
        </mxCell>
        <mxCell id="cDlMDdP6AQrJzQYMhWBW-24" value="Q3 2026" style="text;html=1;align=center;verticalAlign=middle;whiteSpace=wrap;rounded=0;fontStyle=1" parent="1" vertex="1">
          <mxGeometry x="820" y="180" width="60" height="30" as="geometry" />
        </mxCell>
        <mxCell id="cDlMDdP6AQrJzQYMhWBW-25" value="" style="rounded=0;whiteSpace=wrap;html=1;" parent="1" vertex="1">
          <mxGeometry x="350" y="210" width="200" height="120" as="geometry" />
        </mxCell>
        <mxCell id="cDlMDdP6AQrJzQYMhWBW-26" value="" style="rounded=0;whiteSpace=wrap;html=1;" parent="1" vertex="1">
          <mxGeometry x="550" y="210" width="200" height="120" as="geometry" />
        </mxCell>
        <mxCell id="cDlMDdP6AQrJzQYMhWBW-27" value="" style="rounded=0;whiteSpace=wrap;html=1;" parent="1" vertex="1">
          <mxGeometry x="750" y="210" width="200" height="120" as="geometry" />
        </mxCell>
        <mxCell id="cDlMDdP6AQrJzQYMhWBW-28" value="Инфраструктурная команда" style="text;html=1;align=right;verticalAlign=middle;whiteSpace=wrap;rounded=0;fontStyle=1" parent="1" vertex="1">
          <mxGeometry x="70" y="245" width="60" height="30" as="geometry" />
        </mxCell>
        <mxCell id="cDlMDdP6AQrJzQYMhWBW-30" value="Разворачивание и настройка S3" style="rounded=1;whiteSpace=wrap;html=1;fillColor=#d5e8d4;strokeColor=#82b366;" parent="1" vertex="1">
          <mxGeometry x="370" y="230" width="100" height="40" as="geometry" />
        </mxCell>
        <mxCell id="cDlMDdP6AQrJzQYMhWBW-32" value="Разворачивание Kafka" style="rounded=1;whiteSpace=wrap;html=1;fillColor=#d5e8d4;strokeColor=#82b366;" parent="1" vertex="1">
          <mxGeometry x="370" y="277" width="100" height="40" as="geometry" />
        </mxCell>
        <mxCell id="cDlMDdP6AQrJzQYMhWBW-34" value="Разворачивание ElasticSearch" style="rounded=1;whiteSpace=wrap;html=1;fillColor=#d5e8d4;strokeColor=#82b366;" parent="1" vertex="1">
          <mxGeometry x="478" y="277" width="100" height="40" as="geometry" />
        </mxCell>
        <mxCell id="cDlMDdP6AQrJzQYMhWBW-35" value="Закупка и настройка оборудования для будущей инфраструктуры" style="rounded=1;whiteSpace=wrap;html=1;fillColor=#d5e8d4;strokeColor=#82b366;" parent="1" vertex="1">
          <mxGeometry x="170" y="230" width="160" height="83" as="geometry" />
        </mxCell>
        <mxCell id="cDlMDdP6AQrJzQYMhWBW-36" value="Разворачивание и настройка баз данных" style="rounded=1;whiteSpace=wrap;html=1;fillColor=#d5e8d4;strokeColor=#82b366;" parent="1" vertex="1">
          <mxGeometry x="478" y="230" width="100" height="40" as="geometry" />
        </mxCell>
        <mxCell id="cDlMDdP6AQrJzQYMhWBW-37" value="Установка и настройка Data LakeHouse" style="rounded=1;whiteSpace=wrap;html=1;fillColor=#d5e8d4;strokeColor=#82b366;" parent="1" vertex="1">
          <mxGeometry x="590" y="230" width="130" height="83" as="geometry" />
        </mxCell>
        <mxCell id="cDlMDdP6AQrJzQYMhWBW-38" value="" style="rounded=0;whiteSpace=wrap;html=1;" parent="1" vertex="1">
          <mxGeometry x="150" y="330" width="200" height="120" as="geometry" />
        </mxCell>
        <mxCell id="cDlMDdP6AQrJzQYMhWBW-39" value="" style="rounded=0;whiteSpace=wrap;html=1;" parent="1" vertex="1">
          <mxGeometry x="350" y="330" width="200" height="120" as="geometry" />
        </mxCell>
        <mxCell id="cDlMDdP6AQrJzQYMhWBW-40" value="" style="rounded=0;whiteSpace=wrap;html=1;" parent="1" vertex="1">
          <mxGeometry x="550" y="330" width="200" height="120" as="geometry" />
        </mxCell>
        <mxCell id="cDlMDdP6AQrJzQYMhWBW-41" value="" style="rounded=0;whiteSpace=wrap;html=1;" parent="1" vertex="1">
          <mxGeometry x="750" y="330" width="200" height="120" as="geometry" />
        </mxCell>
        <mxCell id="cDlMDdP6AQrJzQYMhWBW-42" value="Команда платформы данных" style="text;html=1;align=right;verticalAlign=middle;whiteSpace=wrap;rounded=0;fontStyle=1" parent="1" vertex="1">
          <mxGeometry x="20" y="375" width="110" height="30" as="geometry" />
        </mxCell>
        <mxCell id="cDlMDdP6AQrJzQYMhWBW-43" value="Разработка платформенных пайплайнов данных" style="rounded=1;whiteSpace=wrap;html=1;fillColor=#d5e8d4;strokeColor=#82b366;" parent="1" vertex="1">
          <mxGeometry x="570" y="349.25" width="160" height="81.5" as="geometry" />
        </mxCell>
        <mxCell id="cDlMDdP6AQrJzQYMhWBW-45" value="Формирование команды платформы из существующего штата + набор" style="rounded=1;whiteSpace=wrap;html=1;fillColor=#d5e8d4;strokeColor=#82b366;" parent="1" vertex="1">
          <mxGeometry x="170" y="348.5" width="160" height="83" as="geometry" />
        </mxCell>
        <mxCell id="cDlMDdP6AQrJzQYMhWBW-46" value="Разработка процессов для доменных команд" style="rounded=1;whiteSpace=wrap;html=1;fillColor=#d5e8d4;strokeColor=#82b366;" parent="1" vertex="1">
          <mxGeometry x="370" y="348.5" width="160" height="81.5" as="geometry" />
        </mxCell>
        <mxCell id="cDlMDdP6AQrJzQYMhWBW-48" value="Подключение разработанных процессов к Data Lakehouse" style="rounded=1;whiteSpace=wrap;html=1;fillColor=#d5e8d4;strokeColor=#82b366;" parent="1" vertex="1">
          <mxGeometry x="770" y="349.25" width="160" height="81.5" as="geometry" />
        </mxCell>
        <mxCell id="cDlMDdP6AQrJzQYMhWBW-49" value="Поддержка и донастройка решений &lt;br&gt;по требованиям других команд" style="rounded=1;whiteSpace=wrap;html=1;fillColor=#d5e8d4;strokeColor=#82b366;" parent="1" vertex="1">
          <mxGeometry x="780" y="230" width="350" height="83" as="geometry" />
        </mxCell>
        <mxCell id="cDlMDdP6AQrJzQYMhWBW-50" value="" style="rounded=0;whiteSpace=wrap;html=1;" parent="1" vertex="1">
          <mxGeometry x="150" y="450" width="200" height="120" as="geometry" />
        </mxCell>
        <mxCell id="cDlMDdP6AQrJzQYMhWBW-51" value="Доменные команды" style="text;html=1;align=right;verticalAlign=middle;whiteSpace=wrap;rounded=0;fontStyle=1" parent="1" vertex="1">
          <mxGeometry x="20" y="495" width="110" height="30" as="geometry" />
        </mxCell>
        <mxCell id="cDlMDdP6AQrJzQYMhWBW-52" value="" style="rounded=0;whiteSpace=wrap;html=1;" parent="1" vertex="1">
          <mxGeometry x="350" y="450" width="200" height="120" as="geometry" />
        </mxCell>
        <mxCell id="cDlMDdP6AQrJzQYMhWBW-53" value="" style="rounded=0;whiteSpace=wrap;html=1;" parent="1" vertex="1">
          <mxGeometry x="550" y="450" width="200" height="120" as="geometry" />
        </mxCell>
        <mxCell id="cDlMDdP6AQrJzQYMhWBW-54" value="" style="rounded=0;whiteSpace=wrap;html=1;" parent="1" vertex="1">
          <mxGeometry x="750" y="450" width="200" height="120" as="geometry" />
        </mxCell>
        <mxCell id="cDlMDdP6AQrJzQYMhWBW-55" value="Внедрение новых процессов по работе с данными" style="rounded=1;whiteSpace=wrap;html=1;fillColor=#d5e8d4;strokeColor=#82b366;" parent="1" vertex="1">
          <mxGeometry x="570" y="469.25" width="160" height="81.5" as="geometry" />
        </mxCell>
        <mxCell id="cDlMDdP6AQrJzQYMhWBW-57" value="Проработка пайплайнов и витрин, согласно потребностям бизнес-домена" style="rounded=1;whiteSpace=wrap;html=1;fillColor=#d5e8d4;strokeColor=#82b366;" parent="1" vertex="1">
          <mxGeometry x="770" y="469.25" width="160" height="81.5" as="geometry" />
        </mxCell>
        <mxCell id="cDlMDdP6AQrJzQYMhWBW-62" value="Q4 2026" style="text;html=1;align=center;verticalAlign=middle;whiteSpace=wrap;rounded=0;fontStyle=1" parent="1" vertex="1">
          <mxGeometry x="1020" y="180" width="60" height="30" as="geometry" />
        </mxCell>
        <mxCell id="cDlMDdP6AQrJzQYMhWBW-64" value="Тестирование и запуск процессов в Data LakeHouse" style="rounded=1;whiteSpace=wrap;html=1;fillColor=#d5e8d4;strokeColor=#82b366;" parent="1" vertex="1">
          <mxGeometry x="970" y="469.25" width="160" height="81.5" as="geometry" />
        </mxCell>
        <mxCell id="cDlMDdP6AQrJzQYMhWBW-66" value="Поддержка доменных команд" style="rounded=1;whiteSpace=wrap;html=1;fillColor=#d5e8d4;strokeColor=#82b366;" parent="1" vertex="1">
          <mxGeometry x="970" y="349.25" width="160" height="81.5" as="geometry" />
        </mxCell>
        <mxCell id="cDlMDdP6AQrJzQYMhWBW-67" value="Формирование доменных команд &lt;br&gt;из существующего штата + набор" style="rounded=1;whiteSpace=wrap;html=1;fillColor=#d5e8d4;strokeColor=#82b366;" parent="1" vertex="1">
          <mxGeometry x="210" y="467.75" width="320" height="83" as="geometry" />
        </mxCell>
        <mxCell id="cDlMDdP6AQrJzQYMhWBW-77" value="" style="rounded=0;whiteSpace=wrap;html=1;" parent="1" vertex="1">
          <mxGeometry x="950" y="570" width="200" height="120" as="geometry" />
        </mxCell>
        <mxCell id="cDlMDdP6AQrJzQYMhWBW-78" value="" style="rounded=0;whiteSpace=wrap;html=1;" parent="1" vertex="1">
          <mxGeometry x="150" y="570" width="200" height="120" as="geometry" />
        </mxCell>
        <mxCell id="cDlMDdP6AQrJzQYMhWBW-79" value="Команда миграции данных" style="text;html=1;align=right;verticalAlign=middle;whiteSpace=wrap;rounded=0;fontStyle=1" parent="1" vertex="1">
          <mxGeometry x="20" y="615" width="110" height="30" as="geometry" />
        </mxCell>
        <mxCell id="cDlMDdP6AQrJzQYMhWBW-80" value="" style="rounded=0;whiteSpace=wrap;html=1;" parent="1" vertex="1">
          <mxGeometry x="350" y="570" width="200" height="120" as="geometry" />
        </mxCell>
        <mxCell id="cDlMDdP6AQrJzQYMhWBW-81" value="" style="rounded=0;whiteSpace=wrap;html=1;" parent="1" vertex="1">
          <mxGeometry x="550" y="570" width="200" height="120" as="geometry" />
        </mxCell>
        <mxCell id="cDlMDdP6AQrJzQYMhWBW-82" value="" style="rounded=0;whiteSpace=wrap;html=1;" parent="1" vertex="1">
          <mxGeometry x="750" y="570" width="200" height="120" as="geometry" />
        </mxCell>
        <mxCell id="cDlMDdP6AQrJzQYMhWBW-83" value="Инвентаризация и категоризация существующих данных" style="rounded=1;whiteSpace=wrap;html=1;fillColor=#d5e8d4;strokeColor=#82b366;" parent="1" vertex="1">
          <mxGeometry x="570" y="589.25" width="160" height="81.5" as="geometry" />
        </mxCell>
        <mxCell id="cDlMDdP6AQrJzQYMhWBW-84" value="Разработка решений для миграции из существующего DWH" style="rounded=1;whiteSpace=wrap;html=1;fillColor=#d5e8d4;strokeColor=#82b366;" parent="1" vertex="1">
          <mxGeometry x="770" y="589.25" width="160" height="81.5" as="geometry" />
        </mxCell>
        <mxCell id="cDlMDdP6AQrJzQYMhWBW-85" value="Выполнение миграции исторических данных" style="rounded=1;whiteSpace=wrap;html=1;fillColor=#d5e8d4;strokeColor=#82b366;" parent="1" vertex="1">
          <mxGeometry x="970" y="589.25" width="160" height="81.5" as="geometry" />
        </mxCell>
        <mxCell id="cDlMDdP6AQrJzQYMhWBW-87" value="" style="rounded=0;whiteSpace=wrap;html=1;" parent="1" vertex="1">
          <mxGeometry x="950" y="690" width="200" height="120" as="geometry" />
        </mxCell>
        <mxCell id="cDlMDdP6AQrJzQYMhWBW-88" value="" style="rounded=0;whiteSpace=wrap;html=1;" parent="1" vertex="1">
          <mxGeometry x="150" y="690" width="200" height="120" as="geometry" />
        </mxCell>
        <mxCell id="cDlMDdP6AQrJzQYMhWBW-89" value="Команда информационной безопасности" style="text;html=1;align=right;verticalAlign=middle;whiteSpace=wrap;rounded=0;fontStyle=1" parent="1" vertex="1">
          <mxGeometry x="20" y="735" width="110" height="30" as="geometry" />
        </mxCell>
        <mxCell id="cDlMDdP6AQrJzQYMhWBW-90" value="" style="rounded=0;whiteSpace=wrap;html=1;" parent="1" vertex="1">
          <mxGeometry x="350" y="690" width="200" height="120" as="geometry" />
        </mxCell>
        <mxCell id="cDlMDdP6AQrJzQYMhWBW-91" value="" style="rounded=0;whiteSpace=wrap;html=1;" parent="1" vertex="1">
          <mxGeometry x="550" y="690" width="200" height="120" as="geometry" />
        </mxCell>
        <mxCell id="cDlMDdP6AQrJzQYMhWBW-92" value="" style="rounded=0;whiteSpace=wrap;html=1;" parent="1" vertex="1">
          <mxGeometry x="750" y="690" width="200" height="120" as="geometry" />
        </mxCell>
        <mxCell id="cDlMDdP6AQrJzQYMhWBW-93" value="Изучение и контроль безопаснсти новых решений, внедряемых инфраструктурной командой" style="rounded=1;whiteSpace=wrap;html=1;fillColor=#d5e8d4;strokeColor=#82b366;" parent="1" vertex="1">
          <mxGeometry x="370" y="709.25" width="160" height="81.5" as="geometry" />
        </mxCell>
        <mxCell id="cDlMDdP6AQrJzQYMhWBW-94" value="Контроль безопасности потока данных" style="rounded=1;whiteSpace=wrap;html=1;fillColor=#d5e8d4;strokeColor=#82b366;" parent="1" vertex="1">
          <mxGeometry x="570" y="709.25" width="560" height="81.5" as="geometry" />
        </mxCell>
        <mxCell id="JeZcrVaDpZmiYFnvM_aq-3" style="edgeStyle=orthogonalEdgeStyle;rounded=0;orthogonalLoop=1;jettySize=auto;html=1;entryX=0.25;entryY=0;entryDx=0;entryDy=0;" edge="1" parent="1" source="JeZcrVaDpZmiYFnvM_aq-2" target="cDlMDdP6AQrJzQYMhWBW-35">
          <mxGeometry relative="1" as="geometry" />
        </mxCell>
        <mxCell id="JeZcrVaDpZmiYFnvM_aq-2" value="У компании большие потоки данных, для новой архитектуры данных требуется закупка дополнительного &quot;Железа&quot;, это займет время" style="shape=note;whiteSpace=wrap;html=1;backgroundOutline=1;darkOpacity=0.05;size=14;fillColor=#fff2cc;strokeColor=#d6b656;" vertex="1" parent="1">
          <mxGeometry x="145" y="-20" width="130" height="130" as="geometry" />
        </mxCell>
        <mxCell id="JeZcrVaDpZmiYFnvM_aq-6" style="edgeStyle=orthogonalEdgeStyle;rounded=0;orthogonalLoop=1;jettySize=auto;html=1;exitX=0.5;exitY=1;exitDx=0;exitDy=0;exitPerimeter=0;" edge="1" parent="1" source="JeZcrVaDpZmiYFnvM_aq-4" target="JeZcrVaDpZmiYFnvM_aq-5">
          <mxGeometry relative="1" as="geometry" />
        </mxCell>
        <mxCell id="JeZcrVaDpZmiYFnvM_aq-4" value="Установка и настройка компонентов Data Lakehouse - сложный и важный этап, требует значительных ресурсов команды" style="shape=note;whiteSpace=wrap;html=1;backgroundOutline=1;darkOpacity=0.05;size=14;fillColor=#fff2cc;strokeColor=#d6b656;" vertex="1" parent="1">
          <mxGeometry x="480" y="-20" width="130" height="130" as="geometry" />
        </mxCell>
        <mxCell id="JeZcrVaDpZmiYFnvM_aq-5" value="" style="rounded=0;whiteSpace=wrap;html=1;dashed=1;fillColor=none;" vertex="1" parent="1">
          <mxGeometry x="360" y="220" width="370" height="100" as="geometry" />
        </mxCell>
        <mxCell id="JeZcrVaDpZmiYFnvM_aq-9" style="edgeStyle=orthogonalEdgeStyle;rounded=0;orthogonalLoop=1;jettySize=auto;html=1;exitX=0.5;exitY=1;exitDx=0;exitDy=0;exitPerimeter=0;" edge="1" parent="1" source="JeZcrVaDpZmiYFnvM_aq-7" target="cDlMDdP6AQrJzQYMhWBW-49">
          <mxGeometry relative="1" as="geometry" />
        </mxCell>
        <mxCell id="JeZcrVaDpZmiYFnvM_aq-7" value="После установки и настройки могут появиться дополнительные требования от других команд, закладываем на это человеко-часы" style="shape=note;whiteSpace=wrap;html=1;backgroundOutline=1;darkOpacity=0.05;size=14;fillColor=#fff2cc;strokeColor=#d6b656;" vertex="1" parent="1">
          <mxGeometry x="890" y="-20" width="130" height="130" as="geometry" />
        </mxCell>
        <mxCell id="JeZcrVaDpZmiYFnvM_aq-11" style="edgeStyle=orthogonalEdgeStyle;rounded=0;orthogonalLoop=1;jettySize=auto;html=1;exitX=0;exitY=0;exitDx=130;exitDy=72;exitPerimeter=0;entryX=0;entryY=0.75;entryDx=0;entryDy=0;" edge="1" parent="1" source="JeZcrVaDpZmiYFnvM_aq-10" target="cDlMDdP6AQrJzQYMhWBW-45">
          <mxGeometry relative="1" as="geometry">
            <Array as="points">
              <mxPoint x="-40" y="410" />
              <mxPoint x="65" y="410" />
            </Array>
          </mxGeometry>
        </mxCell>
        <mxCell id="JeZcrVaDpZmiYFnvM_aq-12" style="edgeStyle=orthogonalEdgeStyle;rounded=0;orthogonalLoop=1;jettySize=auto;html=1;exitX=0;exitY=0;exitDx=130;exitDy=72;exitPerimeter=0;entryX=0;entryY=0.25;entryDx=0;entryDy=0;" edge="1" parent="1" source="JeZcrVaDpZmiYFnvM_aq-10" target="cDlMDdP6AQrJzQYMhWBW-67">
          <mxGeometry relative="1" as="geometry">
            <Array as="points">
              <mxPoint x="-40" y="410" />
              <mxPoint x="20" y="410" />
              <mxPoint x="20" y="489" />
            </Array>
          </mxGeometry>
        </mxCell>
        <mxCell id="JeZcrVaDpZmiYFnvM_aq-10" value="Разбиваем дата-инженеров и аналитиков на доменные и платформенные команды.&lt;br&gt;Также может потребоваться добор в связи с новыми направлениями бизнеса" style="shape=note;whiteSpace=wrap;html=1;backgroundOutline=1;darkOpacity=0.05;size=14;fillColor=#fff2cc;strokeColor=#d6b656;" vertex="1" parent="1">
          <mxGeometry x="-220" y="317" width="180" height="183" as="geometry" />
        </mxCell>
        <mxCell id="JeZcrVaDpZmiYFnvM_aq-15" style="edgeStyle=orthogonalEdgeStyle;rounded=0;orthogonalLoop=1;jettySize=auto;html=1;exitX=0;exitY=0;exitDx=83;exitDy=0;exitPerimeter=0;entryX=0.5;entryY=1;entryDx=0;entryDy=0;" edge="1" parent="1" source="JeZcrVaDpZmiYFnvM_aq-13" target="cDlMDdP6AQrJzQYMhWBW-94">
          <mxGeometry relative="1" as="geometry" />
        </mxCell>
        <mxCell id="JeZcrVaDpZmiYFnvM_aq-13" value="Компания работает с медицинскими данным, которые попадают под юридические и этические нормы - требуется контроль со стороны ИБ на всех этапах внедрения" style="shape=note;whiteSpace=wrap;html=1;backgroundOutline=1;darkOpacity=0.05;size=14;fillColor=#fff2cc;strokeColor=#d6b656;" vertex="1" parent="1">
          <mxGeometry x="590" y="920" width="210" height="183" as="geometry" />
        </mxCell>
        <mxCell id="JeZcrVaDpZmiYFnvM_aq-14" style="edgeStyle=orthogonalEdgeStyle;rounded=0;orthogonalLoop=1;jettySize=auto;html=1;exitX=0;exitY=0;exitDx=83;exitDy=0;exitPerimeter=0;entryX=0.553;entryY=0.972;entryDx=0;entryDy=0;entryPerimeter=0;" edge="1" parent="1" source="JeZcrVaDpZmiYFnvM_aq-13" target="cDlMDdP6AQrJzQYMhWBW-93">
          <mxGeometry relative="1" as="geometry" />
        </mxCell>
        <mxCell id="JeZcrVaDpZmiYFnvM_aq-18" style="edgeStyle=orthogonalEdgeStyle;rounded=0;orthogonalLoop=1;jettySize=auto;html=1;exitX=0;exitY=0.5;exitDx=0;exitDy=0;exitPerimeter=0;entryX=1;entryY=0.5;entryDx=0;entryDy=0;" edge="1" parent="1" source="JeZcrVaDpZmiYFnvM_aq-16" target="JeZcrVaDpZmiYFnvM_aq-17">
          <mxGeometry relative="1" as="geometry" />
        </mxCell>
        <mxCell id="JeZcrVaDpZmiYFnvM_aq-16" value="Сейчас в компании уже собрано огромное количество данных. Потребуется тщательная проработка миграции. Выделяем на это отдельные ресурсы" style="shape=note;whiteSpace=wrap;html=1;backgroundOutline=1;darkOpacity=0.05;size=14;fillColor=#fff2cc;strokeColor=#d6b656;" vertex="1" parent="1">
          <mxGeometry x="1210" y="564.25" width="220" height="131.5" as="geometry" />
        </mxCell>
        <mxCell id="JeZcrVaDpZmiYFnvM_aq-17" value="" style="rounded=0;whiteSpace=wrap;html=1;dashed=1;fillColor=none;" vertex="1" parent="1">
          <mxGeometry x="560" y="580" width="580" height="100" as="geometry" />
        </mxCell>
        <mxCell id="JeZcrVaDpZmiYFnvM_aq-21" style="edgeStyle=orthogonalEdgeStyle;rounded=0;orthogonalLoop=1;jettySize=auto;html=1;exitX=0;exitY=0.5;exitDx=0;exitDy=0;exitPerimeter=0;entryX=1;entryY=0.5;entryDx=0;entryDy=0;" edge="1" parent="1" source="JeZcrVaDpZmiYFnvM_aq-19" target="JeZcrVaDpZmiYFnvM_aq-20">
          <mxGeometry relative="1" as="geometry" />
        </mxCell>
        <mxCell id="JeZcrVaDpZmiYFnvM_aq-19" value="Доменные команды будут заняты разработкой специфических пайплайнов и витрин для их продуктов, одновременно осваивая новый подход - Data Mesh" style="shape=note;whiteSpace=wrap;html=1;backgroundOutline=1;darkOpacity=0.05;size=14;fillColor=#fff2cc;strokeColor=#d6b656;" vertex="1" parent="1">
          <mxGeometry x="1210" y="405" width="220" height="131.5" as="geometry" />
        </mxCell>
        <mxCell id="JeZcrVaDpZmiYFnvM_aq-20" value="" style="rounded=0;whiteSpace=wrap;html=1;dashed=1;fillColor=none;" vertex="1" parent="1">
          <mxGeometry x="560" y="460" width="580" height="100" as="geometry" />
        </mxCell>
        <mxCell id="JeZcrVaDpZmiYFnvM_aq-23" style="edgeStyle=orthogonalEdgeStyle;rounded=0;orthogonalLoop=1;jettySize=auto;html=1;exitX=0;exitY=0.5;exitDx=0;exitDy=0;exitPerimeter=0;" edge="1" parent="1" source="JeZcrVaDpZmiYFnvM_aq-22" target="cDlMDdP6AQrJzQYMhWBW-66">
          <mxGeometry relative="1" as="geometry" />
        </mxCell>
        <mxCell id="JeZcrVaDpZmiYFnvM_aq-22" value="После настройки и внедрения платформенная команда остается для совершенствования общих процессов и поддержки доменных команд" style="shape=note;whiteSpace=wrap;html=1;backgroundOutline=1;darkOpacity=0.05;size=14;fillColor=#fff2cc;strokeColor=#d6b656;" vertex="1" parent="1">
          <mxGeometry x="1210" y="245" width="220" height="131.5" as="geometry" />
        </mxCell>
        <mxCell id="JeZcrVaDpZmiYFnvM_aq-27" style="edgeStyle=orthogonalEdgeStyle;rounded=0;orthogonalLoop=1;jettySize=auto;html=1;exitX=0;exitY=0.5;exitDx=0;exitDy=0;exitPerimeter=0;entryX=0.5;entryY=0;entryDx=0;entryDy=0;" edge="1" parent="1" source="JeZcrVaDpZmiYFnvM_aq-25" target="cDlMDdP6AQrJzQYMhWBW-48">
          <mxGeometry relative="1" as="geometry">
            <Array as="points">
              <mxPoint x="1140" y="156" />
              <mxPoint x="1140" y="340" />
              <mxPoint x="850" y="340" />
            </Array>
          </mxGeometry>
        </mxCell>
        <mxCell id="JeZcrVaDpZmiYFnvM_aq-25" value="Платформенная команда первой будет работать с новым Data Lakehouse, ей потребуется тщательно спланировать процессы и подходы к созданию пайплайнов и витрин" style="shape=note;whiteSpace=wrap;html=1;backgroundOutline=1;darkOpacity=0.05;size=14;fillColor=#fff2cc;strokeColor=#d6b656;" vertex="1" parent="1">
          <mxGeometry x="1210" y="90" width="220" height="131.5" as="geometry" />
        </mxCell>
      </root>
    </mxGraphModel>
  </diagram>
</mxfile>
